<svg width="32" height="30" viewBox="0 0 32 30" fill="none" xmlns="http://www.w3.org/2000/svg">
<path d="M10.5694 23.3342C8.83968 23.3342 7.4375 24.7365 7.4375 26.4662C7.4375 28.1959 8.83975 29.5981 10.5694 29.5981C12.2992 29.5981 13.7014 28.1959 13.7014 26.4662C13.7015 24.7365 12.2992 23.3342 10.5694 23.3342ZM10.5694 28.2062C9.60848 28.2062 8.82949 27.4272 8.82949 26.4662C8.82949 25.5053 9.60848 24.7263 10.5694 24.7263C11.5304 24.7263 12.3094 25.5053 12.3094 26.4662C12.3095 27.4272 11.5304 28.2062 10.5694 28.2062Z" fill="black" stroke="black" stroke-width="0.5"/>
<path d="M23.7936 23.3342C22.0638 23.3342 20.6616 24.7365 20.6616 26.4662C20.6616 28.1959 22.0639 29.5981 23.7936 29.5981C25.5233 29.5981 26.9255 28.1959 26.9255 26.4662C26.9255 24.7365 25.5233 23.3342 23.7936 23.3342ZM23.7936 28.2062C22.8326 28.2062 22.0536 27.4272 22.0536 26.4662C22.0536 25.5053 22.8326 24.7263 23.7936 24.7263C24.7545 24.7263 25.5335 25.5053 25.5335 26.4662C25.5336 27.4272 24.7545 28.2062 23.7936 28.2062Z" fill="black" stroke="black" stroke-width="0.5"/>
<path d="M30.8582 5.06458C30.7132 4.90625 30.5149 4.80714 30.3014 4.78616L7.64676 4.47296L7.02037 2.55896C6.57909 1.27947 5.38093 0.415688 4.02757 0.401367H1.696C1.3116 0.401367 1 0.712963 1 1.09736C1 1.48176 1.3116 1.79336 1.696 1.79336H4.02757C4.78432 1.81008 5.45067 2.29599 5.69799 3.01137L10.1176 16.3397L9.76959 17.14C9.38146 18.1409 9.49802 19.2674 10.0828 20.1676C10.6619 21.0518 11.6363 21.5974 12.6928 21.6292H26.2299C26.6143 21.6292 26.9259 21.3176 26.9259 20.9332C26.9259 20.5488 26.6143 20.2372 26.2299 20.2372H12.6927C12.0961 20.2223 11.5469 19.9084 11.2311 19.402C10.9189 18.9018 10.8547 18.2855 11.0571 17.7316L11.3356 17.1052L25.9862 15.574C27.5955 15.3967 28.9193 14.2263 29.2922 12.6508L30.9627 5.65607C31.0379 5.45464 30.998 5.22811 30.8582 5.06458ZM27.935 12.3377C27.7091 13.3518 26.848 14.0999 25.8123 14.1821L11.3356 15.6784L8.09917 5.86495L29.4314 6.17815L27.935 12.3377Z" fill="black" stroke="black" stroke-width="0.5"/>
</svg>
