<svg width="32" height="31" viewBox="0 0 32 31" fill="none" xmlns="http://www.w3.org/2000/svg">
<path d="M10.5694 23.9331C8.83968 23.9331 7.4375 25.3354 7.4375 27.0651C7.4375 28.7948 8.83975 30.197 10.5694 30.197C12.2992 30.197 13.7014 28.7947 13.7014 27.0651C13.7015 25.3354 12.2992 23.9331 10.5694 23.9331ZM10.5694 28.8051C9.60848 28.8051 8.82949 28.0261 8.82949 27.0651C8.82949 26.1042 9.60848 25.3252 10.5694 25.3252C11.5304 25.3252 12.3094 26.1042 12.3094 27.0651C12.3095 28.0261 11.5304 28.8051 10.5694 28.8051Z" fill="black" stroke="black" stroke-width="0.5"/>
<path d="M23.7941 23.9331C22.0643 23.9331 20.6621 25.3354 20.6621 27.0651C20.6621 28.7948 22.0644 30.197 23.7941 30.197C25.5238 30.197 26.926 28.7947 26.926 27.0651C26.926 25.3354 25.5238 23.9331 23.7941 23.9331ZM23.7941 28.8051C22.8331 28.8051 22.0541 28.0261 22.0541 27.0651C22.0541 26.1042 22.8331 25.3252 23.7941 25.3252C24.755 25.3252 25.534 26.1042 25.534 27.0651C25.5341 28.0261 24.755 28.8051 23.7941 28.8051Z" fill="black" stroke="black" stroke-width="0.5"/>
<path d="M30.8582 5.66322C30.7132 5.50489 30.5149 5.40577 30.3014 5.38479L7.64676 5.0716L7.02037 3.15759C6.57909 1.8781 5.38093 1.01432 4.02757 1H1.696C1.3116 1 1 1.3116 1 1.696C1 2.08039 1.3116 2.39199 1.696 2.39199H4.02757C4.78432 2.40871 5.45067 2.89462 5.69799 3.61L10.1176 16.9383L9.76959 17.7387C9.38146 18.7395 9.49802 19.866 10.0828 20.7662C10.6619 21.6504 11.6363 22.196 12.6928 22.2278H26.2299C26.6143 22.2278 26.9259 21.9162 26.9259 21.5318C26.9259 21.1474 26.6143 20.8358 26.2299 20.8358H12.6927C12.0961 20.8209 11.5469 20.5071 11.2311 20.0006C10.9189 19.5004 10.8547 18.8841 11.0571 18.3302L11.3356 17.7038L25.9862 16.1726C27.5955 15.9954 28.9193 14.8249 29.2922 13.2494L30.9627 6.2547C31.0379 6.05328 30.998 5.82674 30.8582 5.66322ZM27.935 12.9363C27.7091 13.9505 26.848 14.6986 25.8123 14.7807L11.3356 16.2771L8.09917 6.46359L29.4314 6.77678L27.935 12.9363Z" fill="black" stroke="black" stroke-width="0.5"/>
</svg>
