<svg width="15" height="15" viewBox="0 0 15 15" fill="none" xmlns="http://www.w3.org/2000/svg">
<path d="M7.50009 14.4189C11.3214 14.4189 14.4191 11.3211 14.4191 7.49985C14.4191 3.67857 11.3214 0.580811 7.50009 0.580811C3.67881 0.580811 0.581055 3.67857 0.581055 7.49985C0.581055 11.3211 3.67881 14.4189 7.50009 14.4189Z" fill="#27AE60"/>
<path d="M7.5 15C3.36483 15 0 11.6358 0 7.5C0 3.36483 3.36483 0 7.5 0C11.6358 0 15 3.36483 15 7.5C15 11.6358 11.6358 15 7.5 15ZM7.5 1.16188C4.00503 1.16188 1.16188 4.00503 1.16188 7.5C1.16188 10.995 4.00503 13.8381 7.5 13.8381C10.995 13.8381 13.8381 10.9944 13.8381 7.5C13.8381 4.00503 10.995 1.16188 7.5 1.16188Z" fill="#27AE60"/>
<path d="M6.59373 10.2597C6.43805 10.2597 6.28931 10.1976 6.1795 10.086L4.03582 7.90749C3.811 7.6786 3.8139 7.31145 4.04279 7.08604C4.27169 6.8618 4.63942 6.86412 4.86425 7.09301L6.57688 8.83351L10.1201 4.93132C10.3368 4.69372 10.7039 4.67688 10.9404 4.89183C11.178 5.10736 11.1954 5.47451 10.9799 5.71269L7.02363 10.0697C6.91617 10.1882 6.76512 10.2568 6.60536 10.2603C6.60129 10.2597 6.5978 10.2597 6.59373 10.2597Z" fill="white"/>
</svg>
