<svg width="10" height="10" viewBox="0 0 10 10" fill="none" xmlns="http://www.w3.org/2000/svg">
<path d="M9.27039 1.45062C8.77717 0.890967 8.09293 0.582764 7.34375 0.582764C6.29008 0.582764 5.62299 1.21206 5.24893 1.73999C5.15188 1.87698 5.06932 2.01435 5 2.1436C4.93068 2.01435 4.84814 1.87698 4.75107 1.73999C4.37701 1.21206 3.70992 0.582764 2.65625 0.582764C1.90707 0.582764 1.22283 0.890986 0.72959 1.45063C0.259121 1.9845 0 2.6995 0 3.46392C0 4.29601 0.324863 5.06993 1.02236 5.89946C1.64574 6.64087 2.54256 7.40509 3.58105 8.29003C3.96803 8.6198 4.3682 8.96081 4.79424 9.33357L4.80703 9.34478C4.86227 9.39314 4.93113 9.4173 5 9.4173C5.06887 9.4173 5.13773 9.39312 5.19297 9.34478L5.20576 9.33357C5.6318 8.96081 6.03197 8.61982 6.419 8.28999C7.45744 7.40511 8.35426 6.64089 8.97764 5.89946C9.67514 5.06991 10 4.29601 10 3.46392C10 2.6995 9.74088 1.9845 9.27039 1.45062ZM6.03893 7.84405C5.70533 8.12831 5.36201 8.42087 5 8.73558C4.63801 8.42091 4.29467 8.12833 3.96102 7.84401C1.92861 6.11212 0.585938 4.96796 0.585938 3.46392C0.585938 2.84224 0.793066 2.26481 1.16918 1.83804C1.54961 1.40642 2.07771 1.1687 2.65625 1.1687C3.45955 1.1687 3.97883 1.66358 4.27297 2.07874C4.53682 2.45108 4.67449 2.82644 4.72145 2.97052C4.76072 3.09112 4.87316 3.17274 5 3.17274C5.12684 3.17274 5.23928 3.09112 5.27855 2.97052C5.32551 2.82644 5.46318 2.45108 5.72703 2.07872C6.02117 1.66358 6.54045 1.1687 7.34375 1.1687C7.92229 1.1687 8.45039 1.40642 8.8308 1.83804C9.20693 2.26481 9.41406 2.84224 9.41406 3.46392C9.41406 4.96796 8.07139 6.11212 6.03893 7.84405Z" fill="black"/>
</svg>
