<svg width="30" height="30" viewBox="0 0 30 30" fill="none" xmlns="http://www.w3.org/2000/svg">
<g clip-path="url(#clip0)">
<path d="M25.7115 10.7197H7.50232V9.64852C7.49906 5.5075 10.8534 2.14794 14.9943 2.14467C18.0537 2.14229 20.8077 3.99884 21.9529 6.83573C22.1785 7.38263 22.8047 7.6431 23.3516 7.41753C23.8932 7.19416 24.1549 6.57696 23.9388 6.03238C21.9449 1.09574 16.3265 -1.28983 11.3899 0.704169C7.74389 2.17687 5.35769 5.71638 5.36008 9.64858V10.7197H4.28893C3.69734 10.7197 3.21777 11.1993 3.21777 11.7909V28.929C3.21777 29.5206 3.69734 30.0002 4.28893 30.0002H25.7115C26.3031 30.0002 26.7827 29.5206 26.7827 28.929V11.7908C26.7827 11.1992 26.3031 10.7197 25.7115 10.7197ZM24.6405 27.8578H5.36008V12.862H24.6405V27.8578Z" fill="black"/>
<path d="M18.029 18.2042C17.4374 16.531 15.6015 15.6541 13.9283 16.2457C12.2551 16.8373 11.3782 18.6733 11.9698 20.3465C12.2934 21.2616 13.0132 21.9814 13.9283 22.305V24.6443C13.9283 25.2359 14.4079 25.7155 14.9994 25.7155C15.591 25.7155 16.0706 25.2359 16.0706 24.6443V22.305C17.7437 21.7134 18.6205 19.8774 18.029 18.2042ZM14.9994 20.3598C14.4078 20.3598 13.9282 19.8802 13.9282 19.2886C13.9282 18.697 14.4078 18.2175 14.9994 18.2175C15.591 18.2175 16.0705 18.697 16.0705 19.2886C16.0705 19.8802 15.5909 20.3598 14.9994 20.3598Z" fill="black"/>
</g>
<defs>
<clipPath id="clip0">
<rect width="30" height="30" fill="white"/>
</clipPath>
</defs>
</svg>
