<svg width="37" height="29" viewBox="0 0 37 29" fill="none" xmlns="http://www.w3.org/2000/svg">
<path d="M13.0205 24.563C12.7374 24.563 12.5078 24.7925 12.5078 25.0757V27.2676C12.5078 27.5507 12.7374 27.7802 13.0205 27.7802C13.3037 27.7802 13.5332 27.5507 13.5332 27.2676V25.0757C13.5332 24.7925 13.3037 24.563 13.0205 24.563Z" fill="black" stroke="black" stroke-width="0.5"/>
<path d="M23.9795 24.563C23.6963 24.563 23.4668 24.7925 23.4668 25.0757V27.2676C23.4668 27.5507 23.6963 27.7802 23.9795 27.7802C24.2626 27.7802 24.4922 27.5507 24.4922 27.2676V25.0757C24.4922 24.7925 24.2626 24.563 23.9795 24.563Z" fill="black" stroke="black" stroke-width="0.5"/>
<path d="M8.86571 13.6575C7.67517 13.0623 5.44304 13.0554 5.34856 13.0554C5.06549 13.0554 4.83601 13.2848 4.83594 13.568C4.83587 13.8511 5.06528 14.0807 5.34843 14.0808C5.92524 14.0812 7.59902 14.1706 8.40716 14.5747C8.48078 14.6115 8.55898 14.6289 8.63602 14.6289C8.82408 14.6289 9.00516 14.525 9.09499 14.3454C9.22166 14.0921 9.11898 13.7841 8.86571 13.6575Z" fill="black" stroke="black" stroke-width="0.5"/>
<path d="M3.70459 23.4673C3.42144 23.4673 3.19189 23.6968 3.19189 23.98V27.2679C3.19189 27.551 3.42144 27.7805 3.70459 27.7805C3.98773 27.7805 4.21728 27.551 4.21728 27.2679V23.98C4.21728 23.6969 3.9878 23.4673 3.70459 23.4673Z" fill="black" stroke="black" stroke-width="0.5"/>
<path d="M34.8078 21.5523L32.7315 20.5143C32.7195 20.5083 32.712 20.4961 32.712 20.4827L32.7121 19.4392C33.5644 18.8524 34.1677 17.9246 34.3186 16.8358C34.702 16.1733 34.904 15.425 34.904 14.6642C34.904 13.2454 34.2208 11.9833 33.1664 11.1892C33.2282 10.9833 33.2601 10.771 33.2601 10.5544C33.2601 9.21412 32.0468 8.12372 30.5555 8.12372C29.0643 8.12372 27.851 9.21412 27.851 10.5544C27.851 10.7713 27.8825 10.9837 27.9443 11.1894C27.3156 11.6629 26.8199 12.3033 26.5214 13.0437C26.3944 11.7948 26.262 10.3185 26.1351 8.59868C25.9676 6.32956 25.1515 4.41331 23.7752 3.0572C22.4093 1.71135 20.5851 1 18.5 1C16.4148 1 14.5906 1.71135 13.2249 3.05713C11.8485 4.41331 11.0325 6.32956 10.865 8.59861C10.8205 9.20106 10.7754 9.77206 10.7301 10.3156H5.8965C4.10303 10.3156 2.6439 11.7747 2.6439 13.5682V13.5987C2.6439 14.0164 2.74261 14.4347 2.92944 14.8083L3.19187 15.3332V16.1703C3.19187 17.4969 3.84559 18.6872 4.83577 19.4035V20.144C4.83577 20.239 4.772 20.3235 4.68074 20.3496L2.56413 20.9543C1.64319 21.2174 1 22.0701 1 23.0279V27.2676C1 27.5507 1.22955 27.7803 1.51269 27.7803C1.79584 27.7803 2.02539 27.5507 2.02539 27.2676V23.0279C2.02539 22.5254 2.36281 22.0782 2.84584 21.9401L4.96251 21.3354C5.03887 21.3136 5.1114 21.284 5.18044 21.2488L6.47975 22.5481V27.2676C6.47975 27.5507 6.7093 27.7803 6.99244 27.7803C7.27558 27.7803 7.50513 27.5507 7.50513 27.2676V22.5481L8.81353 21.2397C8.98839 21.3255 9.16264 21.3754 9.29034 21.4119L9.81007 21.5604C9.10577 22.0612 8.67168 22.878 8.67168 23.7638V27.2675C8.67168 27.5506 8.90124 27.7801 9.18438 27.7801C9.46752 27.7801 9.69707 27.5506 9.69707 27.2675V23.7638C9.69707 23.0992 10.0899 22.4963 10.6979 22.2277L13.6292 20.9331C14.5477 22.7726 16.4247 23.9444 18.5 23.9444C20.5831 23.9444 22.4538 22.7752 23.3718 20.9335L26.3022 22.2277C26.9101 22.4963 27.303 23.0992 27.303 23.7638V27.2675C27.303 27.5506 27.5325 27.7801 27.8157 27.7801C28.0988 27.7801 28.3284 27.5506 28.3284 27.2675V23.7638C28.3284 23.1079 28.09 22.4901 27.6809 22.0098L28.4743 21.6131L29.0699 22.1791C29.4865 22.5751 30.021 22.7729 30.5556 22.7729C31.09 22.7729 31.6247 22.5749 32.0412 22.1791L32.6367 21.6132L34.3493 22.4694C34.735 22.6622 34.9746 23.05 34.9746 23.4812V27.2675C34.9746 27.5507 35.2042 27.7802 35.4873 27.7802C35.7705 27.7802 36 27.5507 36 27.2675V23.4812C35.9999 22.6591 35.5431 21.92 34.8078 21.5523ZM30.5555 9.14904C31.4813 9.14904 32.2346 9.77945 32.2346 10.5543C32.2346 10.5868 32.232 10.619 32.2294 10.6511C31.7139 10.4352 31.1484 10.3156 30.5555 10.3156C29.9626 10.3156 29.3972 10.4352 28.8818 10.651C28.8791 10.6189 28.8763 10.5868 28.8763 10.5543C28.8763 9.77945 29.6296 9.14904 30.5555 9.14904ZM6.99251 21.6108L5.82425 20.4425C5.84838 20.3463 5.8613 20.2461 5.8613 20.1439V19.9277C6.18382 20.0335 6.52397 20.0964 6.87596 20.1069C6.9154 20.1081 6.95464 20.1087 6.99394 20.1087C7.38277 20.1087 7.76237 20.0499 8.12358 19.9379V20.1437C8.12358 20.255 8.135 20.3559 8.1553 20.448L6.99251 21.6108ZM6.90672 19.0818C5.42373 19.0375 4.21726 17.7313 4.21726 16.1703V15.2122C4.21726 15.1326 4.19873 15.054 4.16312 14.9829L3.84655 14.3497C3.73061 14.1177 3.66929 13.8581 3.66929 13.5987V13.5682C3.66929 12.3401 4.66843 11.341 5.8965 11.341H10.3157V13.4693C10.3157 13.8133 10.2344 14.1577 10.0805 14.4653L9.82176 14.9828C9.78615 15.054 9.76762 15.1325 9.76762 15.2121V16.308C9.76762 17.065 9.46834 17.7724 8.92489 18.2997C8.38171 18.8268 7.66455 19.1048 6.90672 19.0818ZM11.1917 20.8887L9.57205 20.426C9.1489 20.3051 9.14897 20.258 9.14897 20.1439L9.14911 19.4375C9.3213 19.3182 9.4855 19.1847 9.6391 19.0356C9.74246 18.9353 9.83871 18.8298 9.92895 18.7204C10.0113 18.8875 10.1376 19.0334 10.3008 19.1391C10.7117 19.4052 11.4873 19.8473 12.6278 20.2544L11.1917 20.8887ZM18.5 22.9191C16.8319 22.9191 15.3211 21.9866 14.5677 20.5186L15.314 20.189C15.8964 19.9318 16.2728 19.3542 16.2728 18.7175V17.4873C16.9616 17.7641 17.7133 17.9167 18.5 17.9167C19.2866 17.9167 20.0383 17.7641 20.7272 17.4873V18.7175C20.7272 19.3542 21.1035 19.9318 21.6859 20.189L22.4321 20.5185C21.6792 21.9882 20.1743 22.9191 18.5 22.9191ZM22.9456 19.6244L22.1002 19.251C21.889 19.1577 21.7526 18.9483 21.7526 18.7174V16.9548C23.4002 15.8858 24.4925 14.0302 24.4925 11.9242V10.9629C24.4925 10.3381 24.2268 9.74868 23.7636 9.34591C22.7335 8.45 20.4017 6.88655 16.3591 6.48228C16.0781 6.45411 15.8261 6.6596 15.7979 6.94144C15.7698 7.22322 15.9753 7.47444 16.2571 7.5026C20.0172 7.87858 22.1525 9.30367 23.0908 10.1197C23.33 10.3276 23.4671 10.635 23.4671 10.9629V11.9242C23.4671 14.663 21.2388 16.8913 18.5 16.8913C15.7612 16.8913 13.533 14.663 13.533 11.9242V11.4953C13.533 11.2983 13.6422 11.1179 13.8252 11.0125C14.4662 10.6434 15.3115 9.95971 15.6986 8.79849C15.7882 8.52991 15.643 8.23952 15.3743 8.14997C15.1058 8.06042 14.8153 8.20561 14.7258 8.47426C14.4406 9.32985 13.8003 9.84357 13.3135 10.1239C12.8164 10.4101 12.5075 10.9357 12.5075 11.4954V11.9243C12.5075 14.0304 13.5998 15.8859 15.2474 16.9548V18.7175C15.2474 18.9483 15.111 19.1577 14.8998 19.251L14.0543 19.6245C12.403 19.1827 11.3449 18.5936 10.858 18.2784C10.8483 18.2721 10.8428 18.2649 10.8456 18.2487C11.0244 17.1916 11.4839 14.1425 11.8876 8.67415C12.0365 6.65652 12.7478 4.96668 13.9446 3.78749C15.1145 2.63474 16.6897 2.02539 18.5 2.02539C20.3102 2.02539 21.8854 2.63474 23.0554 3.78749C24.2521 4.96668 24.9634 6.65645 25.1124 8.67408C25.516 14.1422 25.9755 17.1915 26.1544 18.2487C26.1572 18.2649 26.1517 18.2721 26.1419 18.2784C25.6543 18.594 24.5962 19.1827 22.9456 19.6244ZM28.3989 20.4827C28.3989 20.4961 28.3914 20.5082 28.3794 20.5142L26.7731 21.3174C26.754 21.3084 26.7357 21.2984 26.7164 21.2898L24.3723 20.2545C25.5123 19.8475 26.2877 19.4057 26.6992 19.1392C27.0527 18.9103 27.2358 18.4937 27.1655 18.0777C27.1616 18.0549 27.1575 18.03 27.1534 18.0054C27.4417 18.5852 27.8728 19.0771 28.3989 19.4392V20.4827ZM31.3346 21.4359C30.8977 21.8513 30.2132 21.8512 29.7762 21.4359L29.2996 20.9831C29.38 20.8325 29.4242 20.6616 29.4242 20.4827V19.9371C29.7823 20.0482 30.1621 20.1086 30.5554 20.1086C30.9487 20.1086 31.3285 20.0482 31.6865 19.9371L31.6865 20.4825C31.6865 20.6616 31.7306 20.8325 31.8111 20.9832L31.3346 21.4359ZM30.5555 19.0831C29.1359 19.0831 27.9503 18.0202 27.7976 16.6105C27.7894 16.535 27.7646 16.4622 27.7248 16.3974C27.4026 15.8726 27.2323 15.2733 27.2323 14.6641C27.2323 12.8318 28.723 11.341 30.5555 11.341C32.3878 11.341 33.8786 12.8318 33.8786 14.6641C33.8786 15.0173 33.821 15.3672 33.71 15.7012C32.2543 14.2222 29.6933 13.6426 29.5699 13.6154C29.4182 13.582 29.2595 13.6192 29.1384 13.7165C29.0173 13.8138 28.9468 13.9608 28.9468 14.1161C28.9468 14.1194 28.9235 14.4751 28.5491 14.8495C28.3488 15.0497 28.3488 15.3744 28.5491 15.5745C28.7493 15.7748 29.0739 15.7748 29.2741 15.5745C29.5624 15.2862 29.7318 14.9935 29.8312 14.7464C30.6939 15.0027 32.4844 15.6499 33.288 16.786C33.0599 18.1073 31.9153 19.0831 30.5555 19.0831Z" fill="black" stroke="black" stroke-width="0.5"/>
<path d="M33.2954 24.1445C33.0123 24.1445 32.7827 24.3741 32.7827 24.6572V27.2677C32.7827 27.5508 33.0123 27.7804 33.2954 27.7804C33.5786 27.7804 33.8081 27.5508 33.8081 27.2677V24.6572C33.8081 24.3741 33.5786 24.1445 33.2954 24.1445Z" fill="black" stroke="black" stroke-width="0.5"/>
</svg>
