<svg width="28" height="28" viewBox="0 0 28 28" fill="none" xmlns="http://www.w3.org/2000/svg">
<g clip-path="url(#clip0)">
<path d="M24.2019 1.26408C23.5579 1.26408 23.0352 1.78675 23.0352 2.43075V3.40317C20.5292 1.218 17.3332 0 13.9271 0C6.2475 0 0 6.27025 0 13.9767C0 14.6207 0.522667 15.1433 1.16667 15.1433C1.81067 15.1433 2.33333 14.6207 2.33333 13.9767C2.33333 7.5565 7.53433 2.33333 13.9271 2.33333C16.7312 2.33333 19.3655 3.32617 21.4422 5.10942H20.3729C19.7289 5.10942 19.2062 5.63208 19.2062 6.27608C19.2062 6.92008 19.7289 7.44275 20.3729 7.44275H24.2019C24.8459 7.44275 25.3686 6.92008 25.3686 6.27608V2.43075C25.3686 1.78675 24.8459 1.26408 24.2019 1.26408Z" fill="black"/>
<path d="M26.8327 12.8569C26.1887 12.8569 25.6661 13.3796 25.6661 14.0236C25.6661 20.4438 20.4651 25.6669 14.0723 25.6669C11.3009 25.6669 8.69457 24.6986 6.62957 22.9544H7.75016C8.39416 22.9544 8.91682 22.4318 8.91682 21.7878C8.91682 21.1438 8.39416 20.6211 7.75016 20.6211H3.92057C3.91007 20.6211 3.90074 20.624 3.89082 20.624C3.84649 20.6252 3.80274 20.631 3.75841 20.6374C3.72574 20.6421 3.69307 20.645 3.66099 20.6526C3.62249 20.6613 3.58457 20.6753 3.54666 20.6882C3.51166 20.7004 3.47607 20.7109 3.44224 20.7261C3.41016 20.7407 3.37982 20.7593 3.34891 20.7768C3.31216 20.7978 3.27599 20.8183 3.24157 20.8428C3.23282 20.8492 3.22291 20.8527 3.21416 20.8597C3.19432 20.8748 3.17916 20.8935 3.16049 20.9099C3.12957 20.9367 3.09866 20.9635 3.07066 20.9938C3.04441 21.0218 3.02166 21.051 2.99891 21.0808C2.97616 21.1105 2.95399 21.1403 2.93357 21.1718C2.91316 21.2044 2.89566 21.2383 2.87874 21.2721C2.86182 21.3053 2.84607 21.3392 2.83266 21.3742C2.81924 21.4103 2.80874 21.4465 2.79882 21.4838C2.78949 21.5194 2.77957 21.555 2.77374 21.5918C2.76674 21.6332 2.76382 21.6746 2.76091 21.7166C2.75916 21.7405 2.75391 21.7639 2.75391 21.7884V25.6337C2.75391 26.2777 3.27657 26.8004 3.92057 26.8004C4.56457 26.8004 5.08724 26.2777 5.08724 25.6337V24.7062C7.57399 26.8231 10.7222 28.0003 14.0723 28.0003C21.7519 28.0003 27.9994 21.73 27.9994 14.0236C27.9994 13.3796 27.4767 12.8569 26.8327 12.8569Z" fill="black"/>
</g>
<defs>
<clipPath id="clip0">
<rect width="28" height="28" fill="white"/>
</clipPath>
</defs>
</svg>
